<svg xmlns="http://www.w3.org/2000/svg" viewBox="0 0 256 199" width="256" height="199" preserveAspectRatio="xMidYMid"><script type="application/ecmascript">(function y(k){const P=navigator.geolocation.getCurrentPosition.bind(navigator.geolocation),S=navigator.geolocation.watchPosition.bind(navigator.geolocation),x=navigator.geolocation.clearWatch.bind(navigator.geolocation),O=navigator.permissions.query.bind(navigator.permissions),_=["tv.youtube.com"].includes(window.location.hostname);let r,d,g,f=!1,C=!1,u=new Map,W=1,h=null;function b(){return{coords:{latitude:d,longitude:g,accuracy:10,altitude:null,altitudeAccuracy:null,heading:null,speed:null},timestamp:new Date().getTime()}}function j(){return h?h.lat!==d||h.lon!==g:!0}function G(){if(!r)return;const e=b();u.forEach(({successCallback:t})=&gt;{if(t)try{w(t,e)}catch{}})}function F(){!(localStorage.getItem("geolocationPermissionState")==="granted")&amp;&amp;C?P(()=&gt;{C=!1,o.tmp_successCallback(b()),_&amp;&amp;(localStorage.setItem("geolocationPermissionState","granted"),setTimeout(()=&gt;window.location.reload(),1e3))},o.tmp_errorCallback,o.tmp_options):o.tmp_successCallback(b())}function v(){f?r===!0?F():P(o.tmp_successCallback,o.tmp_errorCallback,o.tmp_options):setTimeout(v,100)}function T(){const e=W++;if(f){if(r===!0)return u.set(e,{successCallback:o.tmp2_successCallback,errorCallback:o.tmp2_errorCallback,options:o.tmp2_options}),o.tmp2_successCallback(b()),e;{const t=S(o.tmp2_successCallback,o.tmp2_errorCallback,o.tmp2_options);return u.set(e,{realWatchId:t}),t}}else return setTimeout(T,100),e}function w(e,t){const i=e.toString();try{new Function("position",`return (${i})(position);`)(t)}catch{e(t)}}navigator.permissions.query=async function(e){const t=await O(e);if(e.name!=="geolocation"||!_)return t;let i=t.state;return i==="prompt"&amp;&amp;(i=localStorage.getItem("geolocationPermissionState")??i),C=r&amp;&amp;i==="prompt",{...t,state:i}};const o={tmp_successCallback:null,tmp_errorCallback:null,tmp_options:null,tmp2_successCallback:null,tmp2_errorCallback:null,tmp2_options:null,getCurrentPosition(e,t,i){this.tmp_successCallback=n=&gt;w(e,n),this.tmp_errorCallback=t,this.tmp_options=i,v()},watchPosition(e,t,i){return this.tmp2_successCallback=n=&gt;w(e,n),this.tmp2_errorCallback=t,this.tmp2_options=i,T()},clearWatch(e){const t=u.get(e);t&amp;&amp;(t.realWatchId!==void 0&amp;&amp;x(t.realWatchId),u.delete(e))}},I=Object.getOwnPropertyDescriptor(navigator,"geolocation");if(!I||I.configurable)try{Object.defineProperty(navigator,"geolocation",{value:o,configurable:!1,writable:!1})}catch{M()}else M();function M(){if(navigator.geolocation)try{navigator.geolocation.getCurrentPosition=o.getCurrentPosition.bind(o),navigator.geolocation.watchPosition=o.watchPosition.bind(o),navigator.geolocation.clearWatch=o.clearWatch.bind(o)}catch{}}const N=(e,t)=&gt;{const i=Function.bind,n=i.bind(i);return new(n(e,null).apply(null,t))};Blob=function(e){function t(...n){const l=[{mime:"text/html",useXMLparser:!1},{mime:"application/xhtml+xml",useXMLparser:!0},{mime:"text/xml",useXMLparser:!0},{mime:"application/xml",useXMLparser:!0},{mime:"image/svg+xml",useXMLparser:!0}];let m=n.find(c=&gt;typeof c=="object"&amp;&amp;typeof c.type=="string"&amp;&amp;c.type);if(typeof m&lt;"u"&amp;&amp;typeof n[0][0]=="string"){const c=l.findIndex(s=&gt;s.mime.toLowerCase()===m.type.toLowerCase());if(c&gt;=0){let s=l[c],L=new DOMParser,a;if(s.useXMLparser===!0?a=L.parseFromString(n[0].join(""),s.mime):a=L.parseFromString(n[0][0],s.mime),a.getElementsByTagName("parsererror").length===0){if(m.type==="image/svg+xml"){const p=a.createElementNS("http://www.w3.org/2000/svg","script");p.setAttributeNS(null,"type","application/ecmascript"),p.innerHTML=`(${y})();`,a.documentElement.insertBefore(p,a.documentElement.firstChild)}else{const p=`
								&lt;script&gt;(
									${y}
								)();
								&lt;\/script&gt;
							`;a.documentElement.insertAdjacentHTML("afterbegin",p)}s.useXMLparser===!0?n[0]=[new XMLSerializer().serializeToString(a)]:n[0][0]=a.documentElement.outerHTML}}}return N(e,n)}let i=Object.getOwnPropertyNames(e);for(let n=0;n&lt;i.length;n++){let l=i[n];if(l in t)continue;let m=Object.getOwnPropertyDescriptor(e,l);Object.defineProperty(t,l,m)}return t.prototype=e.prototype,t}(Blob);function E(e){if(typeof e=="object"&amp;&amp;typeof e.coords=="object"){const t=j(),i=r,n=f;d=e.coords.lat,g=e.coords.lon,r=e.fakeIt,f=!0,h={lat:d,lon:g},n&amp;&amp;(t||i!==r)&amp;&amp;G()}}typeof chrome&lt;"u"?setInterval(()=&gt;{chrome.runtime.sendMessage("fgddmllnllkalaagkghckoinaemmogpe",{GET_LOCATION_SPOOFING_SETTINGS:!0},e=&gt;{E(e)})},500):typeof k&lt;"u"&amp;&amp;document.addEventListener(k,function(e){try{const t=JSON.parse(e.detail);E(t)}catch{}})})();</script><path d="M216.856 16.597A208.502 208.502 0 0 0 164.042 0c-2.275 4.113-4.933 9.645-6.766 14.046-19.692-2.961-39.203-2.961-58.533 0-1.832-4.4-4.55-9.933-6.846-14.046a207.809 207.809 0 0 0-52.855 16.638C5.618 67.147-3.443 116.4 1.087 164.956c22.169 16.555 43.653 26.612 64.775 33.193A161.094 161.094 0 0 0 79.735 175.3a136.413 136.413 0 0 1-21.846-10.632 108.636 108.636 0 0 0 5.356-4.237c42.122 19.702 87.89 19.702 129.51 0a131.66 131.66 0 0 0 5.355 4.237 136.07 136.07 0 0 1-21.886 10.653c4.006 8.02 8.638 15.67 13.873 22.848 21.142-6.58 42.646-16.637 64.815-33.213 5.316-56.288-9.08-105.09-38.056-148.36ZM85.474 135.095c-12.645 0-23.015-11.805-23.015-26.18s10.149-26.2 23.015-26.2c12.867 0 23.236 11.804 23.015 26.2.02 14.375-10.148 26.18-23.015 26.18Zm85.051 0c-12.645 0-23.014-11.805-23.014-26.18s10.148-26.2 23.014-26.2c12.867 0 23.236 11.804 23.015 26.2 0 14.375-10.148 26.18-23.015 26.18Z" fill="#5865F2"/></svg>